<?xml version="1.0" standalone="no"?>
<!DOCTYPE svg PUBLIC "-//W3C//DTD SVG 20010904//EN"
 "http://www.w3.org/TR/2001/REC-SVG-20010904/DTD/svg10.dtd">
<svg version="1.0" xmlns="http://www.w3.org/2000/svg"
 width="1080.000000pt" height="1080.000000pt" viewBox="0 0 1080.000000 1080.000000"
 preserveAspectRatio="xMidYMid meet">
<metadata>
Created by potrace 1.11, written by Peter Selinger 2001-2013
</metadata>
<g transform="translate(0.000000,1080.000000) scale(0.100000,-0.100000)"
fill="#000000" stroke="none">
<path d="M5719 9936 c-2 -2 -40 -7 -84 -11 -44 -4 -82 -8 -85 -10 -3 -2 -27
-6 -55 -10 -27 -3 -97 -17 -155 -31 -58 -14 -112 -27 -120 -29 -105 -23 -395
-142 -542 -221 -45 -24 -85 -44 -90 -44 -4 0 -8 -4 -8 -8 0 -5 -16 -16 -36
-25 -48 -23 -278 -175 -394 -260 -554 -407 -874 -861 -1084 -1539 -68 -219
-206 -773 -252 -1011 -2 -11 -15 -73 -28 -136 -22 -103 -35 -168 -50 -266 -21
-133 -29 -580 -13 -745 24 -244 94 -563 178 -813 115 -342 299 -724 454 -942
23 -33 80 -127 127 -210 85 -151 94 -167 163 -285 102 -174 369 -587 428 -663
30 -39 30 -42 12 -172 -2 -11 -6 -42 -10 -70 -3 -27 -8 -61 -10 -75 -3 -14 -7
-43 -10 -65 -13 -99 -18 -110 -78 -184 -70 -86 -294 -314 -347 -353 -27 -20
-147 -63 -255 -92 -5 -2 -17 -6 -25 -9 -8 -3 -51 -17 -95 -32 -232 -79 -528
-208 -710 -310 -106 -59 -275 -179 -348 -246 -102 -94 -273 -290 -433 -497
-125 -160 -376 -505 -404 -554 -10 -16 244 -17 4635 -17 2555 0 4645 3 4645 7
0 17 -145 293 -232 439 -46 80 -188 300 -209 327 -5 6 -44 56 -87 111 -84 107
-192 214 -263 261 -24 16 -82 47 -129 69 -46 22 -143 70 -215 108 -192 99
-829 418 -910 455 -39 18 -76 32 -83 32 -6 0 -12 5 -12 10 0 6 -6 10 -12 10
-11 0 -120 45 -233 95 -75 34 -298 112 -400 140 -121 33 -171 44 -275 60 -77
11 -236 5 -260 -10 -4 -3 -34 10 -68 28 l-60 32 61 66 c187 198 331 366 457
534 86 115 230 322 230 331 0 2 15 27 33 56 116 183 265 548 302 740 2 11 6
27 9 36 3 9 8 34 12 56 3 21 7 46 9 55 2 10 17 38 34 64 73 107 179 391 248
662 19 77 37 151 40 165 2 14 8 41 13 60 10 40 67 346 74 400 3 19 12 78 20
130 8 52 17 118 20 145 3 28 8 66 11 85 2 19 7 58 10 85 3 28 8 75 12 105 11
99 12 114 18 180 3 36 8 83 10 105 2 22 6 85 10 140 3 55 8 134 11 175 13 218
3 601 -22 763 -3 20 -7 47 -9 60 -62 449 -242 850 -579 1287 -78 101 -90 117
-129 163 -10 12 -37 44 -60 72 -362 434 -827 754 -1332 918 -100 32 -203 60
-263 72 -13 2 -31 6 -40 9 -9 3 -39 7 -67 11 -27 3 -59 8 -70 11 -11 2 -38 7
-60 10 -46 7 -480 16 -486 10z"/>
</g>
</svg>
